<svg width="215" height="216" viewBox="0 0 215 216" fill="none" xmlns="http://www.w3.org/2000/svg">
<path d="M54.3125 188.718V26.5982C54.3125 13.8469 68.114 5.86268 79.1856 12.2462L115.791 33.3803L152.4 54.5175C163.45 60.9011 163.45 76.8473 152.4 83.2308L115.788 104.368C115.209 104.701 114.728 105.18 114.394 105.758C114.059 106.336 113.883 106.992 113.883 107.659C113.883 108.327 114.059 108.983 114.394 109.561C114.728 110.139 115.209 110.618 115.788 110.951L152.397 132.088C163.447 138.472 163.447 154.418 152.397 160.801L115.788 181.939L79.1856 203.073C68.114 209.456 54.3125 201.478 54.3125 188.718Z" fill="#4D4D4D"/>
</svg>
